<svg width="200" height="200" viewBox="0 0 200 200" xmlns="http://www.w3.org/2000/svg">
  <!-- Background shape -->
  <rect width="200" height="200" fill="#78C2AD" />
  
  <!-- Stylized curly brace to hint at JSON / API format -->
  <path d="M60,40 C40,40 40,60 60,60 L60,70 C40,70 40,90 60,90 L60,110 C40,110 40,130 60,130 L60,140 C40,140 40,160 60,160 
           L140,160 C160,160 160,140 140,140 L140,130 C160,130 160,110 140,110 L140,90 C160,90 160,70 140,70 L140,60 
           C160,60 160,40 140,40 Z" fill="#ffffff" opacity="0.3" />

  <!-- Text label -->
  <text x="50%" y="85%" fill="#ffffff" font-size="24" font-weight="bold" text-anchor="middle" font-family="sans-serif">
    REST API
  </text>
</svg>

